<svg width="24" height="24" viewBox="0 0 24 24" fill="none" xmlns="http://www.w3.org/2000/svg">
<g id="SYSTEM/call">
<path id="Icon" d="M14.0777 5.96825C15.051 6.1573 15.9456 6.6312 16.6468 7.3293C17.348 8.02739 17.824 8.91791 18.0139 9.8869M14.0777 2C16.0999 2.22365 17.9856 3.12517 19.4252 4.55655C20.8649 5.98793 21.7728 7.86409 22 9.87697M10.268 13.7689C9.07064 12.5769 8.12516 11.229 7.43159 9.79089C7.37193 9.66719 7.3421 9.60534 7.31918 9.52708C7.23774 9.24895 7.29624 8.90742 7.46566 8.67188C7.51333 8.6056 7.57029 8.54889 7.6842 8.43549C8.03259 8.08866 8.20678 7.91524 8.32067 7.74086C8.75016 7.08323 8.75016 6.23543 8.32067 5.57781C8.20678 5.40342 8.03259 5.23001 7.6842 4.88318L7.49001 4.68985C6.96042 4.16263 6.69563 3.89902 6.41124 3.75582C5.84566 3.47103 5.17773 3.47103 4.61215 3.75582C4.32776 3.89902 4.06297 4.16263 3.53338 4.68985L3.37629 4.84624C2.84852 5.37166 2.58463 5.63437 2.38309 5.99154C2.15945 6.38787 1.99865 7.00344 2.00001 7.45803C2.00123 7.86769 2.08106 8.14768 2.24071 8.70764C3.09867 11.717 4.71748 14.5566 7.09714 16.9256C9.47679 19.2947 12.3292 20.9062 15.352 21.7604C15.9145 21.9193 16.1957 21.9988 16.6072 22C17.0638 22.0013 17.6822 21.8413 18.0803 21.6186C18.4391 21.418 18.703 21.1553 19.2307 20.6299L19.3878 20.4735C19.9174 19.9462 20.1822 19.6826 20.326 19.3995C20.6121 18.8365 20.6121 18.1715 20.326 17.6085C20.1822 17.3253 19.9174 17.0617 19.3878 16.5345L19.1936 16.3412C18.8452 15.9944 18.671 15.8209 18.4959 15.7076C17.8353 15.28 16.9837 15.28 16.3231 15.7076C16.148 15.8209 15.9738 15.9944 15.6254 16.3412C15.5115 16.4546 15.4545 16.5113 15.3879 16.5588C15.1513 16.7274 14.8083 16.7857 14.5289 16.7046C14.4503 16.6818 14.3881 16.6521 14.2639 16.5927C12.8193 15.9022 11.4654 14.9609 10.268 13.7689Z" stroke="white" stroke-width="1.5" stroke-linecap="round" stroke-linejoin="round"/>
</g>
</svg>
