<svg width="201" height="152" viewBox="0 0 201 152" fill="none" xmlns="http://www.w3.org/2000/svg">
<g clip-path="url(#clip0_1283_12751)">
<path d="M11.5007 149.884C11.5007 150.548 11.1969 150.885 10.5892 150.885C10.0235 150.885 9.53114 150.864 9.09115 150.822C8.65115 150.779 8.26353 150.716 7.89687 150.653C4.61783 149.727 2.98356 147.61 2.98356 144.262V129.247H1.60071C0.867375 129.247 0.490234 128.858 0.490234 128.078V125.625C0.490234 124.751 0.898804 124.319 1.72642 124.319H2.97308V121.982C2.97308 121.024 3.49689 120.561 4.55498 120.561H6.63973C7.68734 120.561 8.2321 121.055 8.2321 122.045V124.319H10.8197C11.5949 124.319 11.993 124.72 11.993 125.52V128.184C11.993 128.889 11.6368 129.247 10.914 129.247H8.2321V143.325C8.2321 145.22 9.00734 146.147 10.5788 146.126C11.1864 146.126 11.4902 146.568 11.4902 147.442V149.884H11.5007Z" fill="white"/>
<path d="M25.0564 124.487C30.043 124.487 32.5259 127.34 32.5259 133.047V149.547C32.5259 150.442 32.1068 150.894 31.2478 150.894H28.4821C27.6335 150.894 27.1935 150.473 27.1935 149.62V133.058C27.1935 130.457 26.2192 129.162 24.2707 129.162C23.5583 129.162 22.8669 129.309 22.2069 129.604C21.5469 129.899 20.9183 130.32 20.3421 130.847V149.547C20.3421 150.442 19.8917 150.894 19.0012 150.894H16.2355C15.345 150.894 14.8945 150.42 14.8945 149.483V118.117C14.8945 117.169 15.3555 116.695 16.2355 116.695H19.0326C19.9126 116.695 20.3421 117.19 20.3421 118.18V126.056C20.9497 125.55 21.6307 125.161 22.4164 124.898C23.1916 124.634 24.0716 124.497 25.0459 124.497L25.0564 124.487Z" fill="white"/>
<path d="M45.213 124.139C51.3415 124.139 54.3482 128.329 54.2329 136.7C54.2329 137.806 53.6568 138.364 52.5149 138.364H40.5092V140.438C40.5092 144.123 41.9444 145.955 44.8149 145.955C47.6854 145.955 49.2777 144.965 49.393 142.986C49.4139 142.186 49.9168 141.828 50.8806 141.954L53.1015 142.259C53.4787 142.333 53.772 142.491 53.971 142.754C54.1701 143.028 54.2748 143.312 54.2748 143.639C54.0968 146.05 53.2063 147.914 51.6139 149.23C50.0215 150.535 47.7168 151.199 44.7206 151.199C38.4559 151.199 35.334 147.735 35.334 140.806V134.699C35.334 127.655 38.6235 124.139 45.2235 124.139H45.213ZM45.0139 129.151C42.1225 129.151 40.6244 130.646 40.5092 133.636H49.1415C49.0996 130.646 47.7273 129.151 45.0035 129.151H45.0139Z" fill="white"/>
<path d="M189.103 16.2879C181.33 8.21202 170.812 3.75815 159.476 3.72656H159.382C148.581 3.72656 138.367 8.03302 130.636 15.8457C122.904 23.6584 118.619 33.977 118.588 44.9169C118.536 67.5232 136.932 86.002 159.602 86.1073H159.801C170.843 86.1073 181.204 81.685 188.998 73.6512C196.572 65.8385 200.752 55.404 200.49 45.0433V44.9169C200.815 34.5667 196.656 24.1322 189.103 16.2879ZM159.529 21.2051C172.561 21.2051 183.205 31.7659 183.247 44.7485C183.278 51.1397 180.848 57.1414 176.416 61.6689C171.985 66.1965 166.066 68.7025 159.749 68.713H159.675C146.685 68.713 136.073 58.0679 136.02 44.9696C135.999 38.6415 138.43 32.6714 142.893 28.1754C147.355 23.6795 153.254 21.2051 159.539 21.2051H159.529Z" fill="white"/>
<path d="M116.544 11.3084C116.544 17.5522 111.505 22.6168 105.292 22.6168C99.08 22.6168 94.041 17.5522 94.041 11.3084C94.041 5.06456 99.08 0 105.292 0C111.505 0 116.544 5.06456 116.544 11.3084Z" fill="white"/>
<path d="M105.241 24.2074C101.752 24.1864 98.494 22.8281 96.074 20.3537C93.7064 17.9426 92.4283 14.7522 92.4598 11.3723C92.4598 10.6563 92.5226 9.9614 92.6274 9.29805C86.5303 5.71811 79.616 3.77021 72.4294 3.70703H72.0942C61.199 3.70703 50.9428 7.9819 43.2114 15.7314C35.4696 23.502 31.1848 33.8628 31.122 44.9079C30.9753 67.4615 49.2562 85.9403 71.8532 86.0878H72.1256C83.0417 86.0878 93.3083 81.8445 101.029 74.116C108.75 66.3876 113.056 56.0689 113.14 45.0659C113.192 37.5796 111.202 30.3565 107.441 24.0179C106.739 24.1337 106.037 24.2074 105.293 24.2074H105.251H105.241ZM72.817 68.7145C72.6808 68.7145 72.5446 68.7145 72.4084 68.7145C59.4285 68.7145 48.7009 58.4169 48.4809 45.7503C48.3657 39.1168 50.7333 32.9467 55.1542 28.356C59.5123 23.8284 65.4628 21.2803 71.9056 21.175C72.0313 21.175 72.157 21.175 72.2827 21.175C84.9903 21.175 95.4979 31.6306 95.7179 44.4868C95.9379 57.6272 85.6608 68.4934 72.817 68.7145Z" fill="white"/>
<path d="M100.913 95.7106C91.2857 95.5737 81.501 95.5421 72.0096 95.521C67.0229 95.4895 61.8687 95.4789 56.7982 95.4473C53.5087 95.4263 50.523 94.1417 48.3859 91.8358C46.5106 89.8037 45.4945 87.224 45.4526 84.3811C45.4526 83.623 45.0649 82.9281 44.4364 82.5069C40.6231 80.0115 37.0926 76.9159 33.9288 73.2833C33.3945 72.6831 32.5983 72.4094 31.8021 72.5568C31.0164 72.7042 30.3774 73.2623 30.105 74.0204C29.0155 77.0844 28.3869 80.6643 28.2926 84.3706C28.0412 93.7943 34.1279 105.755 46.2278 110.451C49.3497 111.662 52.4611 112.252 55.7401 112.252H55.8763C70.6267 112.168 85.1886 112.157 96.2304 112.157H99.1532C102.956 112.157 106.424 113.8 108.634 116.653C110.771 119.412 111.494 122.981 110.625 126.477C109.326 131.689 104.999 134.816 99.059 134.827C93.6323 134.827 88.1952 134.837 82.7581 134.837H61.1039C60.5068 134.827 59.9306 135.069 59.5115 135.49C59.0925 135.922 58.8515 136.49 58.8515 137.09V149.704C58.8515 150.947 59.8572 151.968 61.1039 151.968H78.5153C84.1095 151.968 89.7038 151.968 95.2876 151.968H95.4552C96.0942 151.968 96.7333 151.968 97.3723 151.979H97.6342C98.1685 151.979 98.7028 151.989 99.2475 151.989C100.662 151.989 102.328 151.958 103.983 151.747C112.28 150.684 119.603 145.83 124.066 138.407C128.57 130.941 129.45 122.076 126.506 114.095C122.431 103.092 112.385 95.8685 100.903 95.7L100.913 95.7106Z" fill="white"/>
</g>
<defs>
<clipPath id="clip0_1283_12751">
<rect width="200" height="152" fill="white" transform="translate(0.5)"/>
</clipPath>
</defs>
</svg>
