<svg width="32" height="32" viewBox="0 0 32 32" fill="none" xmlns="http://www.w3.org/2000/svg">
<path d="M15.9996 11.7773C13.7173 11.7773 11.7773 13.7173 11.7773 15.9996C11.7773 18.2818 13.7173 20.2218 15.9996 20.2218C18.2818 20.2218 20.2218 18.2818 20.2218 15.9996C20.2218 13.7173 18.2818 11.7773 15.9996 11.7773Z" fill="#555555"/>
<path d="M21.4118 3.33398H10.7027C6.55725 3.33398 3.33301 6.55823 3.33301 10.5885V21.2976C3.33301 25.4431 6.55725 28.6673 10.7027 28.6673H21.4118C25.4421 28.6673 28.6663 25.4431 28.6663 21.2976V10.5885C28.6663 6.55823 25.4421 3.33398 21.4118 3.33398ZM15.9997 22.6794C12.3148 22.6794 9.43604 19.6855 9.43604 16.1158C9.43604 12.5461 12.3148 9.43701 15.9997 9.43701C19.6845 9.43701 22.5633 12.431 22.5633 16.0007C22.5633 19.5703 19.6845 22.6794 15.9997 22.6794ZM22.7936 10.8188C21.9876 10.8188 21.2966 10.1279 21.2966 9.32186C21.2966 8.5158 21.9876 7.82489 22.7936 7.82489C23.5997 7.82489 24.2906 8.5158 24.2906 9.32186C24.2906 10.1279 23.5997 10.8188 22.7936 10.8188Z" fill="#555555"/>
</svg>
