<svg width="32" height="32" viewBox="0 0 32 32" fill="none" xmlns="http://www.w3.org/2000/svg">
<path fill-rule="evenodd" clip-rule="evenodd" d="M27.4634 6.28694C28.726 6.62327 29.7194 7.62192 30.0558 8.8948C30.6663 11.1974 30.6612 15.9992 30.6612 15.9992C30.6612 15.9992 30.6612 20.801 30.0506 23.1035C29.7143 24.3713 28.7208 25.3699 27.4583 25.7114C25.1712 26.3272 15.9971 26.3272 15.9971 26.3272C15.9971 26.3272 6.82298 26.3272 4.53592 25.7114C3.27339 25.3751 2.27991 24.3764 1.94358 23.1035C1.33301 20.801 1.33301 15.9992 1.33301 15.9992C1.33301 15.9992 1.33301 11.1974 1.94875 8.88963C2.28509 7.62192 3.27856 6.62327 4.5411 6.28176C6.82816 5.66602 16.0023 5.66602 16.0023 5.66602C16.0023 5.66602 25.1712 5.66602 27.4634 6.28694ZM20.6695 15.9992L13.0011 11.6372V20.3612L20.6695 15.9992Z" fill="#555555"/>
</svg>
